<?xml version="1.0" encoding="UTF-8" standalone="no"?>
<svg
   xmlns:dc="http://purl.org/dc/elements/1.1/"
   xmlns:cc="http://creativecommons.org/ns#"
   xmlns:rdf="http://www.w3.org/1999/02/22-rdf-syntax-ns#"
   xmlns:svg="http://www.w3.org/2000/svg"
   xmlns="http://www.w3.org/2000/svg"
   xmlns:sodipodi="http://sodipodi.sourceforge.net/DTD/sodipodi-0.dtd"
   xmlns:inkscape="http://www.inkscape.org/namespaces/inkscape"
   aria-hidden="true"
   focusable="false"
   data-prefix="fas"
   data-icon="arrow-pointer"
   class="svg-inline--fa fa-arrow-pointer"
   role="img"
   viewBox="0 0 319.5824 440.04404"
   version="1.1"
   id="svg4"
   sodipodi:docname="arrow-pointer-solid.svg"
   width="319.5824"
   height="440.04404"
   inkscape:version="1.0.2 (e86c870879, 2021-01-15)">
  <metadata
     id="metadata10">
    <rdf:RDF>
      <cc:Work
         rdf:about="">
        <dc:format>image/svg+xml</dc:format>
        <dc:type
           rdf:resource="http://purl.org/dc/dcmitype/StillImage" />
        <dc:title></dc:title>
      </cc:Work>
    </rdf:RDF>
  </metadata>
  <defs
     id="defs8" />
  <sodipodi:namedview
     pagecolor="#ffffff"
     bordercolor="#666666"
     borderopacity="1"
     objecttolerance="10"
     gridtolerance="10"
     guidetolerance="10"
     inkscape:pageopacity="0"
     inkscape:pageshadow="2"
     inkscape:window-width="2100"
     inkscape:window-height="1224"
     id="namedview6"
     showgrid="false"
     fit-margin-top="0"
     fit-margin-left="0"
     fit-margin-right="0"
     fit-margin-bottom="0"
     inkscape:zoom="1.6015625"
     inkscape:cx="160"
     inkscape:cy="223.99518"
     inkscape:window-x="-9"
     inkscape:window-y="30"
     inkscape:window-maximized="1"
     inkscape:current-layer="svg4" />
  <path
     fill="currentColor"
     d="m 318.4,272.49518 c -3.531,9.344 -12.47,15.52 -22.45,15.52 h -105 l 45.15,94.82 c 9.496,19.94 1.031,43.8 -18.91,53.31 -19.95,9.504 -43.82,1.035 -53.32,-18.91 l -46.57,-97.94 -75,88.25 c -4.641,5.469 -11.37,8.453 -18.28,8.453 -2.781,0 -5.578,-0.4844 -8.281,-1.469 C 6.281,411.09518 0,402.09518 0,391.09518 V 24.015183 c 0,-9.438 5.531,-18.0300005 14.12,-21.9100005 8.63,-3.85 18.71,-2.33999993 25.75,3.88 L 310.97,245.98518 c 8.43,6.61 10.13,17.11 7.43,26.51 z"
     id="path2" />
</svg>
