<?xml version="1.0" encoding="UTF-8" standalone="no"?>
<svg
   xmlns:dc="http://purl.org/dc/elements/1.1/"
   xmlns:cc="http://creativecommons.org/ns#"
   xmlns:rdf="http://www.w3.org/1999/02/22-rdf-syntax-ns#"
   xmlns:svg="http://www.w3.org/2000/svg"
   xmlns="http://www.w3.org/2000/svg"
   xmlns:xlink="http://www.w3.org/1999/xlink"
   xmlns:sodipodi="http://sodipodi.sourceforge.net/DTD/sodipodi-0.dtd"
   xmlns:inkscape="http://www.inkscape.org/namespaces/inkscape"
   width="393.172"
   height="45.885597"
   viewBox="0 0 393.17199 45.885598"
   fill="none"
   version="1.1"
   id="svg4"
   sodipodi:docname="garden.svg"
   inkscape:version="1.0.2 (e86c870879, 2021-01-15)">
  <metadata
     id="metadata10">
    <rdf:RDF>
      <cc:Work
         rdf:about="">
        <dc:format>image/svg+xml</dc:format>
        <dc:type
           rdf:resource="http://purl.org/dc/dcmitype/StillImage" />
        <dc:title />
      </cc:Work>
    </rdf:RDF>
  </metadata>
  <defs
     id="defs8">
    <linearGradient
       inkscape:collect="always"
       id="linearGradient924">
      <stop
         style="stop-color:#1d965c;stop-opacity:1;"
         offset="0"
         id="stop920" />
      <stop
         style="stop-color:#29d683;stop-opacity:1"
         offset="1"
         id="stop922" />
    </linearGradient>
    <rect
       x="80.59095"
       y="13.975309"
       width="138.8214"
       height="44.022221"
       id="rect867" />
    <linearGradient
       inkscape:collect="always"
       xlink:href="#linearGradient924"
       id="linearGradient926"
       x1="372.29538"
       y1="22.19372"
       x2="395.73404"
       y2="-7.4912729"
       gradientUnits="userSpaceOnUse" />
  </defs>
  <sodipodi:namedview
     pagecolor="#ffffff"
     bordercolor="#666666"
     borderopacity="1"
     objecttolerance="10"
     gridtolerance="10"
     guidetolerance="10"
     inkscape:pageopacity="0"
     inkscape:pageshadow="2"
     inkscape:window-width="2100"
     inkscape:window-height="1224"
     id="namedview6"
     showgrid="false"
     fit-margin-top="0"
     fit-margin-left="0"
     fit-margin-right="0"
     fit-margin-bottom="0"
     inkscape:zoom="4.2932862"
     inkscape:cx="189.07206"
     inkscape:cy="49.177684"
     inkscape:window-x="-9"
     inkscape:window-y="30"
     inkscape:window-maximized="1"
     inkscape:current-layer="text873"
     inkscape:document-rotation="0" />
  <g
     id="g857"
     transform="translate(-9.747487,-8.3414809)">
    <text
       xml:space="preserve"
       id="text865"
       style="font-size:40px;line-height:1.25;font-family:sans-serif;letter-spacing:0px;white-space:pre;shape-inside:url(#rect867);"><tspan
         style="visibility:hidden"
         x="80.591797"
         y="94.49126"><tspan
           dx="0 31.015625 24.023438 17.070312 24.921875 23.828125 25.3125 27.929688 17.070312 15.761719">GardenCrtw</tspan></tspan></text>
  </g>
  <g
     inkscape:groupmode="layer"
     id="layer1"
     inkscape:label="Layer 1">
    <path
       id="rect860"
       style="fill:url(#linearGradient926);fill-opacity:1;stroke:none;stroke-width:2;stroke-linecap:round;stroke-opacity:1;stroke-miterlimit:4;stroke-dasharray:none"
       d="M 313.2793 0.15820312 C 307.34352 0.15820312 302.56641 4.9372675 302.56641 10.873047 L 302.56641 35.171875 C 302.56641 41.107654 307.34352 45.884766 313.2793 45.884766 L 382.45703 45.884766 C 388.39281 45.884766 393.17188 41.107654 393.17188 35.171875 L 393.17188 10.873047 C 393.17188 4.9372675 388.39281 0.15820312 382.45703 0.15820312 L 313.2793 0.15820312 z M 313.64648 4.0625 L 320.58008 4.0625 L 320.58008 24.861328 C 320.58008 32.185768 323.74338 35.849609 330.07227 35.849609 C 336.3656 35.849609 339.51367 32.185768 339.51367 24.861328 L 339.51367 4.0625 L 346.33984 4.0625 L 346.33984 25.128906 C 346.33984 30.533347 344.89953 34.693821 342.01953 37.609375 C 339.17509 40.489373 335.17508 41.927734 330.01953 41.927734 C 324.86398 41.927734 320.8468 40.489373 317.9668 37.609375 C 315.0868 34.693821 313.64648 30.533347 313.64648 25.128906 L 313.64648 4.0625 z M 356.04688 4.0625 L 371.40625 4.0625 C 374.6418 4.0625 377.44981 4.5954433 379.83203 5.6621094 C 382.24981 6.7287754 384.09891 8.256937 385.37891 10.248047 C 386.65891 12.239157 387.29883 14.604021 387.29883 17.341797 C 387.29883 20.044017 386.65891 22.408881 385.37891 24.435547 C 384.09891 26.426657 382.24981 27.954818 379.83203 29.021484 C 377.44981 30.08815 374.6418 30.621094 371.40625 30.621094 L 362.97852 30.621094 L 362.97852 41.394531 L 356.04688 41.394531 L 356.04688 4.0625 z M 362.97852 9.9277344 L 362.97852 24.755859 L 371.08594 24.755859 C 374.10816 24.755859 376.40235 24.115937 377.9668 22.835938 C 379.53124 21.555938 380.3125 19.724018 380.3125 17.341797 C 380.3125 14.959576 379.53124 13.129609 377.9668 11.849609 C 376.40235 10.56961 374.10816 9.9277344 371.08594 9.9277344 L 362.97852 9.9277344 z " />
  </g>
  <g
     inkscape:groupmode="layer"
     id="layer2"
     inkscape:label="Layer 2">
    <g
       aria-label="GARDEN "
       transform="translate(-9.7474869,-8.341481)"
       id="text873"
       style="font-size:53.3333px;line-height:1.25;font-family:sans-serif;letter-spacing:0px">
      <path
         d="m 90.600101,30.239282 h 6.559996 v 14.879991 q -2.879998,2.293332 -6.719996,3.519998 -3.839998,1.226665 -7.893329,1.226665 -5.706663,0 -10.293327,-2.453331 -4.586664,-2.506666 -7.199996,-6.879996 -2.613331,-4.373331 -2.613331,-9.866661 0,-5.49333 2.613331,-9.866661 2.613332,-4.373331 7.199996,-6.826662 4.639997,-2.506666 10.399994,-2.506666 4.693331,0 8.533328,1.546666 3.839998,1.546666 6.45333,4.533331 l -4.373331,4.266664 q -4.266664,-4.266664 -10.293327,-4.266664 -3.946664,0 -7.039996,1.653332 -3.039998,1.653332 -4.799997,4.639997 -1.706666,2.986665 -1.706666,6.826663 0,3.733331 1.706666,6.719996 1.759999,2.986665 4.799997,4.69333 3.093332,1.706666 6.986663,1.706666 4.37333,0 7.679995,-1.919999 z"
         style="font-style:normal;font-variant:normal;font-weight:600;font-stretch:normal;font-size:53.3333px;font-family:Montserrat;-inkscape-font-specification:'Montserrat Semi-Bold';fill:#241c1c"
         id="path851" />
      <path
         d="m 130.49338,40.692609 h -18.66666 l -3.68,8.639994 h -7.14666 l 16.79999,-37.333311 h 6.82666 l 16.85333,37.333311 h -7.25333 z m -2.29334,-5.439997 -7.03999,-16.31999 -6.98666,16.31999 z"
         style="font-style:normal;font-variant:normal;font-weight:600;font-stretch:normal;font-size:53.3333px;font-family:Montserrat;-inkscape-font-specification:'Montserrat Semi-Bold';fill:#241c1c"
         id="path853" />
      <path
         d="m 170.65328,49.332603 -7.62666,-10.933326 q -0.48,0.05333 -1.44,0.05333 h -8.42667 v 10.879993 h -6.93332 V 11.999292 h 15.35999 q 4.85333,0 8.42666,1.599999 3.62666,1.599999 5.54666,4.586664 1.92,2.986665 1.92,7.093329 0,4.213331 -2.08,7.253329 -2.02666,3.039999 -5.86666,4.533331 l 8.58666,12.266659 z m -0.16,-24.053319 q 0,-3.573331 -2.34667,-5.49333 -2.34666,-1.919998 -6.87999,-1.919998 h -8.10667 v 14.879991 h 8.10667 q 4.53333,0 6.87999,-1.919999 2.34667,-1.973332 2.34667,-5.546664 z"
         style="font-style:normal;font-variant:normal;font-weight:600;font-stretch:normal;font-size:53.3333px;font-family:Montserrat;-inkscape-font-specification:'Montserrat Semi-Bold';fill:#241c1c"
         id="path855" />
      <path
         d="m 185.21322,11.999292 h 16.31999 q 5.97333,0 10.61333,2.346666 4.63999,2.293332 7.19999,6.559996 2.56,4.213331 2.56,9.759994 0,5.546663 -2.56,9.813327 -2.56,4.213331 -7.19999,6.559996 -4.64,2.293332 -10.61333,2.293332 h -16.31999 z m 15.99999,31.466648 q 4.10667,0 7.2,-1.546665 3.14666,-1.6 4.79999,-4.479998 1.70667,-2.933331 1.70667,-6.773329 0,-3.839998 -1.70667,-6.719996 -1.65333,-2.933332 -4.79999,-4.479997 -3.09333,-1.599999 -7.2,-1.599999 h -9.06666 V 43.46594 Z"
         style="font-style:normal;font-variant:normal;font-weight:600;font-stretch:normal;font-size:53.3333px;font-family:Montserrat;-inkscape-font-specification:'Montserrat Semi-Bold';fill:#241c1c"
         id="path857" />
      <path
         d="m 257.26642,43.519274 v 5.813329 H 229.26644 V 11.999292 h 27.25331 v 5.81333 h -20.31999 v 9.706661 h 18.02666 v 5.706663 h -18.02666 v 10.293328 z"
         style="font-style:normal;font-variant:normal;font-weight:600;font-stretch:normal;font-size:53.3333px;font-family:Montserrat;-inkscape-font-specification:'Montserrat Semi-Bold';fill:#241c1c"
         id="path859" />
      <path
         d="M 298.17296,11.999292 V 49.332603 H 292.4663 L 271.87965,24.052619 v 25.279984 h -6.88 V 11.999292 h 5.70666 l 20.58666,25.279985 V 11.999292 Z"
         style="font-style:normal;font-variant:normal;font-weight:600;font-stretch:normal;font-size:53.3333px;font-family:Montserrat;-inkscape-font-specification:'Montserrat Semi-Bold';fill:#241c1c"
         id="path861" />
    </g>
    <g
       id="g863"
       transform="rotate(-45.470431,8.5178094,54.167559)">
      <path
         style="fill:#3fb97e;fill-opacity:1;stroke-width:0.125026"
         d="M 53.94013,55.848497 41.040031,68.748467 28.138432,55.848497 c -8.600066,-8.60007 -8.600066,-22.54414 0,-31.14408 l 12.901599,-12.90172 12.900099,12.9016 c 8.600065,8.60006 8.600065,22.54413 0,31.1442 z"
         id="path2" />
      <path
         style="fill:#1d965c;fill-opacity:1;stroke-width:0.125026"
         d="m 41.040031,11.802817 v 56.94577 L 28.138432,55.848617 c -8.600066,-8.60006 -8.600066,-22.54413 0,-31.14407 z"
         id="path4" />
      <path
         style="fill:#8fd9b5;fill-opacity:1;stroke-width:0.125026"
         d="m 56.635449,41.124507 c -0.61263,0 -1.113735,-0.49198 -1.122862,-1.10648 -0.06689,-4.48932 -1.847515,-8.70546 -5.013809,-11.87176 l -5.308871,-5.30887 c -0.438718,-0.43872 -0.438718,-1.14987 0,-1.58846 0.438718,-0.43872 1.149993,-0.43872 1.58846,0 l 5.308871,5.30887 c 3.581882,3.58176 5.596057,8.35014 5.671698,13.42684 0.0093,0.62038 -0.486228,1.13061 -1.106359,1.13999 -0.0057,-2.5e-4 -0.01138,-1.3e-4 -0.01713,-1.3e-4 z"
         id="path6" />
      <path
         style="fill:#000000;fill-opacity:1;stroke-width:0.125026"
         d="m 54.735047,23.909877 -12.901224,-12.9011 c -0.210669,-0.2108 -0.496354,-0.32907 -0.794417,-0.32907 -0.298063,0 -0.583624,0.11827 -0.794293,0.32907 l -12.901099,12.9011 c -9.024405,9.0244 -9.024405,23.708 0,32.73228 l 12.572029,12.57203 v 4.35555 c 0,0.62038 0.502982,1.12336 1.123363,1.12336 0.620381,0 1.123362,-0.50298 1.123362,-1.12336 v -4.35555 l 12.572279,-12.57203 c 9.024281,-9.02428 9.024281,-23.70788 0,-32.73228 z m -12.572279,42.12739 v -9.24482 l 5.767968,-2.8056 c 0.557867,-0.27143 0.790041,-0.94357 0.518859,-1.50144 -0.271557,-0.55787 -0.943574,-0.79017 -1.501442,-0.51886 l -4.785135,2.32749 v -6.19743 l 11.304387,-4.73975 c 0.572121,-0.23993 0.841427,-0.89819 0.601627,-1.47019 -0.239801,-0.57199 -0.89794,-0.84167 -1.470186,-0.60162 l -10.435703,4.37555 v -6.42386 l 7.877663,-3.30295 c 0.572121,-0.23992 0.841428,-0.89819 0.601627,-1.47018 -0.2398,-0.572 -0.897939,-0.84168 -1.470185,-0.60163 l -7.00898,2.93874 v -6.54363 l 3.879944,-1.62672 c 0.572121,-0.23992 0.841428,-0.89819 0.601627,-1.47018 -0.2398,-0.57212 -0.898189,-0.84118 -1.470185,-0.60163 l -3.011261,1.26264 v -4.29753 c 0,-0.62038 -0.502981,-1.12336 -1.123362,-1.12336 -0.620381,0 -1.123362,0.50298 -1.123362,1.12336 v 4.29728 l -3.011011,-1.26264 c -0.571871,-0.2398 -1.230385,0.0295 -1.470186,0.60163 -0.2398,0.57212 0.02938,1.23038 0.601627,1.47018 l 3.87982,1.62672 v 6.54363 l -7.008855,-2.93874 c -0.571746,-0.23993 -1.230385,0.0294 -1.470186,0.60163 -0.239925,0.57212 0.02938,1.23038 0.601627,1.47018 l 7.877539,3.30295 v 6.42386 l -10.435579,-4.37555 c -0.571495,-0.2398 -1.230384,0.0294 -1.470185,0.60162 -0.239926,0.57212 0.02938,1.23039 0.601627,1.47019 l 11.304262,4.73975 v 6.19756 l -4.785136,-2.32749 c -0.557617,-0.27119 -1.230009,-0.0391 -1.501442,0.51886 -0.271432,0.55786 -0.03913,1.23013 0.51886,1.50144 l 5.767843,2.80559 v 9.24483 L 28.933725,55.053577 c -8.148471,-8.14822 -8.148471,-21.40665 -1.25e-4,-29.55499 l 12.106931,-12.10693 12.106931,12.10693 c 8.148346,8.14834 8.148346,21.40689 0,29.55511 z"
         id="path8" />
    </g>
  </g>
</svg>
