<?xml version="1.0" encoding="UTF-8" standalone="no"?>
<svg
   xmlns:dc="http://purl.org/dc/elements/1.1/"
   xmlns:cc="http://creativecommons.org/ns#"
   xmlns:rdf="http://www.w3.org/1999/02/22-rdf-syntax-ns#"
   xmlns:svg="http://www.w3.org/2000/svg"
   xmlns="http://www.w3.org/2000/svg"
   xmlns:sodipodi="http://sodipodi.sourceforge.net/DTD/sodipodi-0.dtd"
   xmlns:inkscape="http://www.inkscape.org/namespaces/inkscape"
   width="197.22798mm"
   height="197.22798mm"
   viewBox="0 0 197.22798 197.22798"
   version="1.1"
   id="svg8"
   inkscape:version="1.0.2 (e86c870879, 2021-01-15)"
   sodipodi:docname="drawing.svg">
  <defs
     id="defs2" />
  <sodipodi:namedview
     id="base"
     pagecolor="#ffffff"
     bordercolor="#666666"
     borderopacity="1.0"
     inkscape:pageopacity="0.0"
     inkscape:pageshadow="2"
     inkscape:zoom="0.98994949"
     inkscape:cx="636.20073"
     inkscape:cy="521.49375"
     inkscape:document-units="mm"
     inkscape:current-layer="layer3"
     inkscape:document-rotation="0"
     showgrid="false"
     fit-margin-top="0"
     fit-margin-left="0"
     fit-margin-right="0"
     fit-margin-bottom="0"
     inkscape:window-width="2100"
     inkscape:window-height="1224"
     inkscape:window-x="-9"
     inkscape:window-y="30"
     inkscape:window-maximized="1" />
  <metadata
     id="metadata5">
    <rdf:RDF>
      <cc:Work
         rdf:about="">
        <dc:format>image/svg+xml</dc:format>
        <dc:type
           rdf:resource="http://purl.org/dc/dcmitype/StillImage" />
        <dc:title></dc:title>
      </cc:Work>
    </rdf:RDF>
  </metadata>
  <g
     inkscape:label="Layer 1"
     inkscape:groupmode="layer"
     id="layer1"
     transform="translate(-6.463387,-5.7074409)">
    <g
       id="g888"
       transform="matrix(0.1284589,0.17050436,-0.17050436,0.1284589,123.5092,4.7717745)"
       inkscape:export-filename="C:\Users\Luke\Documents\Studium\WiSe_2122\UrbanGardening\stadtlabor-studyproject\public\favicon.png"
       inkscape:export-xdpi="6.3957777"
       inkscape:export-ydpi="6.3957777">
      <path
         style="fill:#3fb97e;fill-opacity:1"
         d="M 359.183,361.274 256.004,464.452 152.813,361.274 c -68.786,-68.786 -68.786,-180.315 0,-249.1 L 256.004,8.982 359.183,112.173 c 68.786,68.786 68.786,180.315 0,249.101 z"
         id="path2" />
      <path
         style="fill:#1d965c;fill-opacity:1"
         d="M 250.24828,9.6344347 V 465.10443 l -103.191,-103.178 c -68.786004,-68.786 -68.786004,-180.315 0,-249.1 z"
         id="path4" />
      <path
         style="fill:#8fd9b5;fill-opacity:1"
         d="m 380.741,243.507 c -4.9,0 -8.908,-3.935 -8.981,-8.85 -0.535,-35.907 -14.777,-69.629 -40.102,-94.954 L 289.196,97.241 c -3.509,-3.509 -3.509,-9.197 0,-12.705 3.509,-3.509 9.198,-3.509 12.705,0 l 42.462,42.462 c 28.649,28.648 44.759,66.787 45.364,107.392 0.074,4.962 -3.889,9.043 -8.849,9.118 -0.046,-0.002 -0.091,-0.001 -0.137,-0.001 z"
         id="path6" />
      <path
         style="fill:#000000;fill-opacity:1"
         d="M 365.541,105.819 262.353,2.632 C 260.668,0.946 258.383,0 255.999,0 c -2.384,0 -4.668,0.946 -6.353,2.632 L 146.459,105.819 c -72.18,72.18 -72.18,189.624 0,261.803 l 100.555,100.555 v 34.837 c 0,4.962 4.023,8.985 8.985,8.985 4.962,0 8.985,-4.023 8.985,-8.985 V 468.177 L 365.541,367.622 c 72.179,-72.179 72.179,-189.623 0,-261.803 z M 264.984,442.767 v -73.943 l 46.134,-22.44 c 4.462,-2.171 6.319,-7.547 4.15,-12.009 -2.172,-4.462 -7.547,-6.32 -12.009,-4.15 l -38.273,18.616 v -49.569 l 90.416,-37.91 c 4.576,-1.919 6.73,-7.184 4.812,-11.759 -1.918,-4.575 -7.182,-6.732 -11.759,-4.812 l -83.468,34.997 v -51.38 l 63.008,-26.418 c 4.576,-1.919 6.73,-7.184 4.812,-11.759 -1.918,-4.575 -7.182,-6.732 -11.759,-4.812 l -56.06,23.505 v -52.338 l 31.033,-13.011 c 4.576,-1.919 6.73,-7.184 4.812,-11.759 -1.918,-4.576 -7.184,-6.728 -11.759,-4.812 l -24.085,10.099 V 102.73 c 0,-4.962 -4.023,-8.985 -8.985,-8.985 -4.962,0 -8.985,4.023 -8.985,8.985 v 34.371 l -24.083,-10.099 c -4.574,-1.918 -9.841,0.236 -11.759,4.812 -1.918,4.576 0.235,9.841 4.812,11.759 l 31.032,13.011 v 52.338 l -56.059,-23.505 c -4.573,-1.919 -9.841,0.235 -11.759,4.812 -1.919,4.576 0.235,9.841 4.812,11.759 l 63.007,26.418 v 51.38 l -83.467,-34.997 c -4.571,-1.918 -9.841,0.235 -11.759,4.812 -1.919,4.576 0.235,9.841 4.812,11.759 l 90.415,37.91 v 49.57 L 208.75,330.224 c -4.46,-2.169 -9.838,-0.313 -12.009,4.15 -2.171,4.462 -0.313,9.839 4.15,12.009 l 46.133,22.44 v 73.943 l -87.85,-87.85 C 94,289.744 94,183.699 159.173,118.526 l 96.835,-96.835 96.835,96.835 c 65.173,65.173 65.173,171.219 0,236.391 z"
         id="path8" />
    </g>
    <g
       id="g892">
      <path
         id="path875"
         style="fill:#ffebd2;fill-opacity:1;stroke:#000000;stroke-width:16.1197;stroke-linecap:butt;stroke-linejoin:miter;stroke-miterlimit:4;stroke-dasharray:none;stroke-opacity:1"
         d="m 192.37305,428.375 c -19.26423,0.43223 -30.1814,18.51178 -11.30078,51.98242 0,0 74.85432,153.7957 186.42773,147.85742 87.55006,-0.92644 150.31783,67.69937 183.65234,115.31948 l 15.40039,-1.07143 -63.9414,-241.63477 c -27.67419,7.17347 -159.98882,52.38202 -195,18.54493 l -76.1836,-72.23047 C 218.4943,434.20914 203.93158,428.11566 192.37305,428.375 Z"
         transform="matrix(0.26458333,0,0,0.26458333,6.463387,5.7074409)"
         sodipodi:nodetypes="scccccccs" />
    </g>
  </g>
  <g
     inkscape:groupmode="layer"
     id="layer3"
     inkscape:label="mask">
    <path
       id="rect884"
       style="fill:#ffebd2;fill-opacity:1;stroke:#000000;stroke-width:16.1197;stroke-linecap:round;stroke-miterlimit:4;stroke-dasharray:none;stroke-opacity:1"
       d="M 302.99414,34.320312 C 276.55097,34.483239 256.97863,42.640384 250.51758,46.972656 199.87657,80.928521 53.538104,88.892574 5.0507812,88.892578 V 222.23438 c 0,0 159.0506488,-30.95972 246.4765588,18.18164 77.27667,43.43655 146.42254,4.16718 72.73243,-34.34571 -94.35523,-49.31314 -8.54337,-128.325052 42.42578,-70.70898 9.10276,10.28986 18.62695,16.1582 18.62695,16.1582 17.21397,-5.63315 52.86816,-7.35749 73.05469,-2.75195 C 441.62437,116.92271 447.19299,129.09383 434.36523,109.0957 388.37177,48.884319 339.23108,34.097043 302.99414,34.320312 Z"
       transform="scale(0.26458333)" />
    <path
       id="rect895"
       style="fill:#ffebd2;fill-opacity:1;stroke:#000000;stroke-width:16.11968524;stroke-linecap:round;stroke-miterlimit:4;stroke-dasharray:none;stroke-opacity:1"
       d="m 509,481.85352 c -20.30851,-0.12926 -45.62869,3.54945 -77.66406,12.11132 -133.30965,46.31585 -7.94227,58.96124 60.76172,47.80078 l 11.96875,-2.34374 60.99218,203.43554 h 125.65625 c 9.20103,0 17.72618,-0.19129 25.33204,-0.5 C 682.6112,693.9394 623.46129,605.05746 598.51562,547.50195 582.98611,511.67169 565.14707,482.21088 509,481.85352 Z"
       transform="scale(0.26458333)" />
    <path
       style="fill:#ffebd2;stroke:none;stroke-width:0.264583px;stroke-linecap:butt;stroke-linejoin:miter;stroke-opacity:1;fill-opacity:1"
       d="m 130.02662,147.80005 6.41447,-10.28988 16.97162,55.59206 -2.33861,1.31964 -4.2262,0.10023 -0.35079,-0.53454 -8.58604,-17.52286 z"
       id="path914" />
  </g>
  <g
     inkscape:groupmode="layer"
     id="layer2"
     inkscape:label="Hand1" />
</svg>
