<?xml version="1.0" encoding="UTF-8" standalone="no"?>
<svg
   xmlns:dc="http://purl.org/dc/elements/1.1/"
   xmlns:cc="http://creativecommons.org/ns#"
   xmlns:rdf="http://www.w3.org/1999/02/22-rdf-syntax-ns#"
   xmlns:svg="http://www.w3.org/2000/svg"
   xmlns="http://www.w3.org/2000/svg"
   xmlns:sodipodi="http://sodipodi.sourceforge.net/DTD/sodipodi-0.dtd"
   xmlns:inkscape="http://www.inkscape.org/namespaces/inkscape"
   version="1.1"
   id="Layer_1"
   x="0px"
   y="0px"
   viewBox="0 0 428.07367 669.53552"
   xml:space="preserve"
   sodipodi:docname="marker_white.svg"
   inkscape:version="1.0.2 (e86c870879, 2021-01-15)"
   inkscape:export-filename="C:\Users\Luke\Documents\Studium\WiSe_2122\UrbanGardening\stadtlabor-studyproject\public\favicoNEW.png"
   inkscape:export-xdpi="6"
   inkscape:export-ydpi="6"
   width="428.07367"
   height="669.53552"><metadata
   id="metadata45"><rdf:RDF><cc:Work
       rdf:about=""><dc:format>image/svg+xml</dc:format><dc:type
         rdf:resource="http://purl.org/dc/dcmitype/StillImage" /><dc:title></dc:title></cc:Work></rdf:RDF></metadata><defs
   id="defs43" /><sodipodi:namedview
   pagecolor="#ffffff"
   bordercolor="#666666"
   borderopacity="1"
   objecttolerance="10"
   gridtolerance="10"
   guidetolerance="10"
   inkscape:pageopacity="0"
   inkscape:pageshadow="2"
   inkscape:window-width="2100"
   inkscape:window-height="1224"
   id="namedview41"
   showgrid="false"
   inkscape:zoom="0.80078125"
   inkscape:cx="-57.947597"
   inkscape:cy="409.98487"
   inkscape:window-x="-9"
   inkscape:window-y="30"
   inkscape:window-maximized="1"
   inkscape:current-layer="g853"
   inkscape:document-rotation="0"
   fit-margin-top="0"
   fit-margin-left="0"
   fit-margin-right="0"
   fit-margin-bottom="0" />



<g
   id="g888"
   transform="matrix(0.92467588,-0.92467588,0.92467588,0.92467588,-259.39622,334.76768)"
   inkscape:export-filename="C:\Users\Luke\Documents\Studium\WiSe_2122\UrbanGardening\stadtlabor-studyproject\public\favicon.png"
   inkscape:export-xdpi="6.3957777"
   inkscape:export-ydpi="6.3957777"><g
     id="g853"
     transform="rotate(45,255.9995,255.99925)"><path
       style="fill:#3fb97e;fill-opacity:0"
       d="M 359.183,361.274 256.004,464.452 152.813,361.274 c -68.786,-68.786 -68.786,-180.315 0,-249.1 L 256.004,8.982 359.183,112.173 c 68.786,68.786 68.786,180.315 0,249.101 z"
       id="path2" /><path
       style="fill:#ffffff;fill-opacity:0"
       d="m 256.004,8.983 v 455.47 L 152.813,361.275 c -68.786,-68.786 -68.786,-180.315 0,-249.1 z"
       id="path4" /><path
       style="fill:#ffffff;fill-opacity:1"
       d="m 380.741,243.507 c -4.9,0 -8.908,-3.935 -8.981,-8.85 -0.535,-35.907 -14.777,-69.629 -40.102,-94.954 L 289.196,97.241 c -3.509,-3.509 -3.509,-9.197 0,-12.705 3.509,-3.509 9.198,-3.509 12.705,0 l 42.462,42.462 c 28.649,28.648 44.759,66.787 45.364,107.392 0.074,4.962 -3.889,9.043 -8.849,9.118 -0.046,-0.002 -0.091,-0.001 -0.137,-0.001 z"
       id="path6" /><path
       style="fill:#ffffff;fill-opacity:1"
       d="M 365.541,105.819 262.353,2.632 C 260.668,0.946 258.383,0 255.999,0 c -2.384,0 -4.668,0.946 -6.353,2.632 L 146.459,105.819 c -72.18,72.18 -72.18,189.624 0,261.803 l 100.555,100.555 v 34.837 c 0,4.962 4.023,8.985 8.985,8.985 4.962,0 8.985,-4.023 8.985,-8.985 V 468.177 L 365.541,367.622 c 72.179,-72.179 72.179,-189.623 0,-261.803 z M 264.984,442.767 v -73.943 l 46.134,-22.44 c 4.462,-2.171 6.319,-7.547 4.15,-12.009 -2.172,-4.462 -7.547,-6.32 -12.009,-4.15 l -38.273,18.616 v -49.569 l 90.416,-37.91 c 4.576,-1.919 6.73,-7.184 4.812,-11.759 -1.918,-4.575 -7.182,-6.732 -11.759,-4.812 l -83.468,34.997 v -51.38 l 63.008,-26.418 c 4.576,-1.919 6.73,-7.184 4.812,-11.759 -1.918,-4.575 -7.182,-6.732 -11.759,-4.812 l -56.06,23.505 v -52.338 l 31.033,-13.011 c 4.576,-1.919 6.73,-7.184 4.812,-11.759 -1.918,-4.576 -7.184,-6.728 -11.759,-4.812 l -24.085,10.099 V 102.73 c 0,-4.962 -4.023,-8.985 -8.985,-8.985 -4.962,0 -8.985,4.023 -8.985,8.985 v 34.371 l -24.083,-10.099 c -4.574,-1.918 -9.841,0.236 -11.759,4.812 -1.918,4.576 0.235,9.841 4.812,11.759 l 31.032,13.011 v 52.338 l -56.059,-23.505 c -4.573,-1.919 -9.841,0.235 -11.759,4.812 -1.919,4.576 0.235,9.841 4.812,11.759 l 63.007,26.418 v 51.38 l -83.467,-34.997 c -4.571,-1.918 -9.841,0.235 -11.759,4.812 -1.919,4.576 0.235,9.841 4.812,11.759 l 90.415,37.91 v 49.57 L 208.75,330.224 c -4.46,-2.169 -9.838,-0.313 -12.009,4.15 -2.171,4.462 -0.313,9.839 4.15,12.009 l 46.133,22.44 v 73.943 l -87.85,-87.85 C 94,289.744 94,183.699 159.173,118.526 l 96.835,-96.835 96.835,96.835 c 65.173,65.173 65.173,171.219 0,236.391 z"
       id="path8" /></g></g>
<g
   id="g10"
   transform="translate(-46.021106,77.206948)">
</g>
<g
   id="g12"
   transform="translate(-46.021106,77.206948)">
</g>
<g
   id="g14"
   transform="translate(-46.021106,77.206948)">
</g>
<g
   id="g16"
   transform="translate(-46.021106,77.206948)">
</g>
<g
   id="g18"
   transform="translate(-46.021106,77.206948)">
</g>
<g
   id="g20"
   transform="translate(-46.021106,77.206948)">
</g>
<g
   id="g22"
   transform="translate(-46.021106,77.206948)">
</g>
<g
   id="g24"
   transform="translate(-46.021106,77.206948)">
</g>
<g
   id="g26"
   transform="translate(-46.021106,77.206948)">
</g>
<g
   id="g28"
   transform="translate(-46.021106,77.206948)">
</g>
<g
   id="g30"
   transform="translate(-46.021106,77.206948)">
</g>
<g
   id="g32"
   transform="translate(-46.021106,77.206948)">
</g>
<g
   id="g34"
   transform="translate(-46.021106,77.206948)">
</g>
<g
   id="g36"
   transform="translate(-46.021106,77.206948)">
</g>
<g
   id="g38"
   transform="translate(-46.021106,77.206948)">
</g>
</svg>
