<?xml version="1.0" encoding="UTF-8" standalone="no"?>
<svg
   xmlns:dc="http://purl.org/dc/elements/1.1/"
   xmlns:cc="http://creativecommons.org/ns#"
   xmlns:rdf="http://www.w3.org/1999/02/22-rdf-syntax-ns#"
   xmlns:svg="http://www.w3.org/2000/svg"
   xmlns="http://www.w3.org/2000/svg"
   xmlns:sodipodi="http://sodipodi.sourceforge.net/DTD/sodipodi-0.dtd"
   xmlns:inkscape="http://www.inkscape.org/namespaces/inkscape"
   version="1.1"
   id="Layer_1"
   x="0px"
   y="0px"
   viewBox="0 0 480.31686 480.31503"
   xml:space="preserve"
   sodipodi:docname="marker_white.svg"
   inkscape:version="1.0.2 (e86c870879, 2021-01-15)"
   inkscape:export-filename="C:\Users\Luke\Documents\Studium\WiSe_2122\UrbanGardening\stadtlabor-studyproject\public\favicoNEW.png"
   inkscape:export-xdpi="6"
   inkscape:export-ydpi="6"
   width="480.31686"
   height="480.31503"><metadata
   id="metadata45"><rdf:RDF><cc:Work
       rdf:about=""><dc:format>image/svg+xml</dc:format><dc:type
         rdf:resource="http://purl.org/dc/dcmitype/StillImage" /><dc:title /></cc:Work></rdf:RDF></metadata><defs
   id="defs43" /><sodipodi:namedview
   pagecolor="#ffffff"
   bordercolor="#666666"
   borderopacity="1"
   objecttolerance="10"
   gridtolerance="10"
   guidetolerance="10"
   inkscape:pageopacity="0"
   inkscape:pageshadow="2"
   inkscape:window-width="2100"
   inkscape:window-height="1224"
   id="namedview41"
   showgrid="false"
   inkscape:zoom="0.80078125"
   inkscape:cx="-31.826113"
   inkscape:cy="315.37495"
   inkscape:window-x="-9"
   inkscape:window-y="30"
   inkscape:window-maximized="1"
   inkscape:current-layer="g853"
   inkscape:document-rotation="0"
   fit-margin-top="0"
   fit-margin-left="0"
   fit-margin-right="0"
   fit-margin-bottom="0" />



<g
   id="g888"
   transform="matrix(0.92467588,-0.92467588,0.92467588,0.92467588,-233.27474,240.15776)"
   inkscape:export-filename="C:\Users\Luke\Documents\Studium\WiSe_2122\UrbanGardening\stadtlabor-studyproject\public\favicon.png"
   inkscape:export-xdpi="6.3957777"
   inkscape:export-ydpi="6.3957777"><g
     id="g853"
     transform="rotate(45,255.9995,255.99925)"><path
       style="fill:#3fb97e;fill-opacity:0"
       d="M 359.183,361.274 256.004,464.452 152.813,361.274 c -68.786,-68.786 -68.786,-180.315 0,-249.1 L 256.004,8.982 359.183,112.173 c 68.786,68.786 68.786,180.315 0,249.101 z"
       id="path2" /><path
       style="fill:#ffffff;fill-opacity:0"
       d="m 256.004,8.983 v 455.47 L 152.813,361.275 c -68.786,-68.786 -68.786,-180.315 0,-249.1 z"
       id="path4" /><path
       style="fill:#ffffff;fill-opacity:1"
       d="m 439.65072,227.2633 -7e-4,-145.929163 c 7e-4,-2.383657 -0.94611,-4.668319 -2.63185,-6.354061 -1.68575,-1.685743 -3.9697,-2.631852 -6.35336,-2.631145 H 284.73636 c -102.07794,0 -185.123388,83.045449 -185.12268,185.122679 v 142.20624 l -24.633479,24.63348 c -3.508664,3.50867 -3.508664,9.19805 0,12.70671 3.508663,3.50866 9.198045,3.50866 12.706708,0 l 24.633481,-24.63348 142.20766,10e-4 c 102.07652,0 185.12197,-83.04545 185.12267,-185.12268 z m -309.36275,167.15368 52.2856,-52.2856 48.48914,16.75419 c 4.69024,1.61998 9.80474,-0.86833 11.42614,-5.55715 1.61927,-4.69095 -0.86762,-9.80545 -5.55715,-11.42614 l -40.2266,-13.8996 35.05057,-35.05058 90.74019,37.12735 c 4.59266,1.87879 9.83868,-0.32102 11.71746,-4.91227 1.87879,-4.59124 -0.31819,-9.83868 -4.91227,-11.71746 l -83.7674,-34.27418 36.33115,-36.33114 63.23373,25.87303 c 4.59266,1.87879 9.83868,-0.32102 11.71746,-4.91227 1.87879,-4.59124 -0.3182,-9.83868 -4.91227,-11.71746 l -56.26095,-23.01986 37.00856,-37.00856 31.14381,12.74348 c 4.59266,1.87878 9.83868,-0.32103 11.71746,-4.91227 1.87949,-4.59195 -0.32244,-9.83727 -4.91227,-11.71747 l -24.17174,-9.88959 24.30539,-24.30538 c 3.50866,-3.50867 3.50866,-9.19805 0,-12.70671 -3.50867,-3.50867 -9.19805,-3.50867 -12.70671,0 l -24.30397,24.30396 -9.88818,-24.17032 c -1.87808,-4.59054 -7.12552,-6.79176 -11.71747,-4.91227 -4.59195,1.87949 -6.79247,7.12481 -4.91227,11.71747 l 12.74277,31.1431 -37.00855,37.00855 -23.01916,-56.26024 c -1.87666,-4.59054 -7.1248,-6.79247 -11.71746,-4.91227 -4.59266,1.87878 -6.79247,7.12481 -4.91227,11.71747 l 25.87233,63.23302 -36.33115,36.33115 -34.27347,-83.7667 c -1.87595,-4.58842 -7.1248,-6.79247 -11.71746,-4.91227 -4.59266,1.87878 -6.79247,7.12481 -4.91227,11.71746 l 37.12664,90.73948 -35.05128,35.05128 -13.8996,-40.22659 c -1.61998,-4.68741 -6.73519,-7.17784 -11.42614,-5.55716 -4.69024,1.61999 -7.17855,6.7359 -5.55715,11.42614 l 16.75348,48.48844 -52.2856,52.28559 V 257.47797 C 117.58804,165.30943 192.57277,90.324293 284.74131,90.324293 H 421.68668 V 227.26966 c 0,92.16854 -74.98585,167.15439 -167.15368,167.15368 z"
       id="path8" /></g></g>
<g
   id="g10"
   transform="translate(-19.899622,-17.402967)">
</g>
<g
   id="g12"
   transform="translate(-19.899622,-17.402967)">
</g>
<g
   id="g14"
   transform="translate(-19.899622,-17.402967)">
</g>
<g
   id="g16"
   transform="translate(-19.899622,-17.402967)">
</g>
<g
   id="g18"
   transform="translate(-19.899622,-17.402967)">
</g>
<g
   id="g20"
   transform="translate(-19.899622,-17.402967)">
</g>
<g
   id="g22"
   transform="translate(-19.899622,-17.402967)">
</g>
<g
   id="g24"
   transform="translate(-19.899622,-17.402967)">
</g>
<g
   id="g26"
   transform="translate(-19.899622,-17.402967)">
</g>
<g
   id="g28"
   transform="translate(-19.899622,-17.402967)">
</g>
<g
   id="g30"
   transform="translate(-19.899622,-17.402967)">
</g>
<g
   id="g32"
   transform="translate(-19.899622,-17.402967)">
</g>
<g
   id="g34"
   transform="translate(-19.899622,-17.402967)">
</g>
<g
   id="g36"
   transform="translate(-19.899622,-17.402967)">
</g>
<g
   id="g38"
   transform="translate(-19.899622,-17.402967)">
</g>
</svg>
